<svg width="204" height="204" viewBox="0 0 204 204" fill="none" xmlns="http://www.w3.org/2000/svg">
<path fill-rule="evenodd" clip-rule="evenodd" d="M59.9482 0.612C70.8251 0.111273 74.2931 0 102 0C129.707 0 133.175 0.120545 144.043 0.612C154.91 1.10345 162.328 2.83745 168.819 5.35036C175.616 7.91891 181.783 11.934 186.883 17.1267C192.075 22.2175 196.081 28.3745 198.64 35.1807C201.163 41.6716 202.887 49.0898 203.388 59.9389C203.889 70.8344 204 74.3024 204 102C204 129.707 203.879 133.175 203.388 144.052C202.897 154.901 201.163 162.319 198.64 168.81C196.081 175.617 192.069 181.784 186.883 186.883C181.783 192.075 175.616 196.081 168.819 198.64C162.328 201.163 154.91 202.887 144.061 203.388C133.175 203.889 129.707 204 102 204C74.2931 204 70.8251 203.879 59.9482 203.388C49.0991 202.897 41.6809 201.163 35.19 198.64C28.3831 196.081 22.2158 192.068 17.1175 186.883C11.9282 181.789 7.91255 175.624 5.35036 168.819C2.83745 162.328 1.11273 154.91 0.612 144.061C0.111273 133.166 0 129.698 0 102C0 74.2931 0.120545 70.8251 0.612 59.9575C1.10345 49.0898 2.83745 41.6716 5.35036 35.1807C7.91634 28.3753 11.9351 22.2111 17.1267 17.1175C22.2178 11.9294 28.3789 7.91375 35.1807 5.35036C41.6716 2.83745 49.0898 1.11273 59.9389 0.612H59.9482ZM143.217 18.972C132.461 18.4805 129.234 18.3785 102 18.3785C74.766 18.3785 71.5391 18.4805 60.7827 18.972C50.8331 19.4264 45.4364 21.0862 41.8385 22.4864C37.0816 24.3409 33.6785 26.5385 30.1085 30.1085C26.7244 33.4008 24.12 37.4088 22.4864 41.8385C21.0862 45.4364 19.4264 50.8331 18.972 60.7827C18.4805 71.5391 18.3785 74.766 18.3785 102C18.3785 129.234 18.4805 132.461 18.972 143.217C19.4264 153.167 21.0862 158.564 22.4864 162.161C24.1184 166.585 26.724 170.6 30.1085 173.891C33.4004 177.276 37.4155 179.882 41.8385 181.514C45.4364 182.914 50.8331 184.574 60.7827 185.028C71.5391 185.519 74.7567 185.621 102 185.621C129.243 185.621 132.461 185.519 143.217 185.028C153.167 184.574 158.564 182.914 162.161 181.514C166.918 179.659 170.321 177.461 173.891 173.891C177.276 170.6 179.882 166.585 181.514 162.161C182.914 158.564 184.574 153.167 185.028 143.217C185.519 132.461 185.621 129.234 185.621 102C185.621 74.766 185.519 71.5391 185.028 60.7827C184.574 50.8331 182.914 45.4364 181.514 41.8385C179.659 37.0816 177.461 33.6785 173.891 30.1085C170.599 26.7247 166.591 24.1203 162.161 22.4864C158.564 21.0862 153.167 19.4264 143.217 18.972V18.972ZM88.9718 133.444C96.2477 136.473 104.35 136.881 111.893 134.6C119.437 132.319 125.955 127.49 130.334 120.937C134.713 114.384 136.681 106.515 135.902 98.6721C135.123 90.8295 131.645 83.5007 126.063 77.9373C122.504 74.381 118.201 71.6579 113.464 69.9641C108.727 68.2703 103.673 67.6479 98.6664 68.1417C93.6598 68.6355 88.8249 70.2333 84.5098 72.8199C80.1948 75.4066 76.5069 78.9178 73.7117 83.1008C70.9165 87.2838 69.0836 92.0345 68.3448 97.0109C67.606 101.987 67.9798 107.066 69.4392 111.88C70.8986 116.695 73.4074 121.126 76.7849 124.855C80.1624 128.583 84.3246 131.517 88.9718 133.444ZM64.9276 64.9276C69.796 60.0592 75.5757 56.1974 81.9366 53.5626C88.2975 50.9279 95.115 49.5718 102 49.5718C108.885 49.5718 115.703 50.9279 122.063 53.5626C128.424 56.1974 134.204 60.0592 139.072 64.9276C143.941 69.796 147.803 75.5757 150.437 81.9366C153.072 88.2975 154.428 95.115 154.428 102C154.428 108.885 153.072 115.703 150.437 122.063C147.803 128.424 143.941 134.204 139.072 139.072C129.24 148.905 115.905 154.428 102 154.428C88.0952 154.428 74.7598 148.905 64.9276 139.072C55.0954 129.24 49.5718 115.905 49.5718 102C49.5718 88.0952 55.0954 74.7598 64.9276 64.9276V64.9276ZM166.056 57.3796C167.262 56.2416 168.228 54.873 168.896 53.355C169.564 51.837 169.921 50.2004 169.945 48.5421C169.969 46.8838 169.661 45.2374 169.037 43.7006C168.414 42.1638 167.488 40.7676 166.315 39.5949C165.143 38.4222 163.746 37.4967 162.21 36.8732C160.673 36.2497 159.026 35.9409 157.368 35.965C155.71 35.9892 154.073 36.3459 152.555 37.0139C151.037 37.6819 149.669 38.6478 148.531 39.8542C146.317 42.2005 145.105 45.3169 145.153 48.5421C145.2 51.7672 146.502 54.8471 148.782 57.1278C151.063 59.4086 154.143 60.7107 157.368 60.7577C160.593 60.8047 163.71 59.5929 166.056 57.3796V57.3796Z" fill="white"/>
</svg>
