<svg width="204" height="204" viewBox="0 0 204 204" fill="none" xmlns="http://www.w3.org/2000/svg">
<path d="M102 0C45.6723 0 0 45.6723 0 102C0 158.328 45.6723 204 102 204C158.328 204 204 158.328 204 102C204 45.6723 158.328 0 102 0ZM151.019 76.8871C151.087 77.9571 151.087 79.0728 151.087 80.1656C151.087 113.589 125.633 152.089 79.1183 152.089C64.7746 152.089 51.4781 147.923 40.2763 140.751C42.3254 140.979 44.2835 141.07 46.3781 141.07C58.2174 141.07 69.1004 137.063 77.775 130.278C66.6643 130.05 57.3295 122.764 54.142 112.746C58.0353 113.316 61.5415 113.316 65.5487 112.291C59.8277 111.129 54.6855 108.022 50.9958 103.498C47.3061 98.9738 45.2963 93.3119 45.308 87.4741V87.1554C48.6549 89.0451 52.5938 90.2062 56.7147 90.3656C53.2504 88.0568 50.4094 84.9289 48.4434 81.2592C46.4775 77.5894 45.4475 73.4913 45.4446 69.3281C45.4446 64.6152 46.6741 60.3121 48.8826 56.5781C55.2326 64.3952 63.1565 70.7885 72.1391 75.3426C81.1218 79.8967 90.9623 82.5097 101.021 83.0116C97.4464 65.8219 110.288 51.9107 125.724 51.9107C133.01 51.9107 139.567 54.9616 144.189 59.8795C149.904 58.8094 155.368 56.6692 160.24 53.8004C158.35 59.6518 154.389 64.5924 149.129 67.7116C154.229 67.1652 159.147 65.7536 163.701 63.7728C160.263 68.8272 155.96 73.3125 151.019 76.8871V76.8871Z" fill="white"/>
</svg>
